<svg xmlns="http://www.w3.org/2000/svg" xmlns:xlink="http://www.w3.org/1999/xlink" id="svg9662" width="24" height="24" version="1.1"><defs id="defs3"><filter id="filter10824" width="1.209" height="1.282" x="-.104" y="-.141" color-interpolation-filters="sRGB"><feGaussianBlur id="feGaussianBlur10826" stdDeviation=".959"/></filter><linearGradient id="linearGradient4333" x1="-557.06" x2="-545.52" y1="28.408" y2="34.607" gradientTransform="translate(569,1013)" gradientUnits="userSpaceOnUse"><stop id="stop10743" offset="0" stop-color="#f46e6e"/><stop id="stop10749" offset=".5" stop-color="#f7d478"/><stop id="stop10745" offset="1" stop-color="#f46e6e"/></linearGradient><linearGradient id="linearGradient4335" x1="-551" x2="-551" y1="27.362" y2="36.362" gradientTransform="translate(569,1013)" gradientUnits="userSpaceOnUse"><stop id="stop10755" offset="0" stop-color="#e50000"/><stop id="stop10757" offset="1" stop-color="#ab0000"/></linearGradient><linearGradient id="linearGradient4337" x1="-568.52" x2="-557.01" y1="34.767" y2="28.079" gradientTransform="translate(569,1013)" gradientUnits="userSpaceOnUse"><stop id="stop10729" offset="0" stop-color="#73d216"/><stop id="stop10735" offset=".5" stop-color="#efff20"/><stop id="stop10731" offset="1" stop-color="#89d216"/></linearGradient><linearGradient id="linearGradient4339" x1="-563.29" x2="-563.29" y1="25.486" y2="35.858" gradientTransform="translate(569,1013)" gradientUnits="userSpaceOnUse"><stop id="stop10719" offset="0" stop-color="#4e9a06"/><stop id="stop10721" offset="1" stop-color="#346704"/></linearGradient><linearGradient id="linearGradient4341" x1="-562.87" x2="-549.62" y1="15.384" y2="40.663" gradientTransform="translate(569,1013)" gradientUnits="userSpaceOnUse"><stop id="stop10836" offset="0" stop-color="#fff"/><stop id="stop10838" offset="1" stop-color="#fff" stop-opacity="0"/></linearGradient></defs><metadata id="metadata4"/><g id="layer1" transform="translate(0 -1028.4)"><rect id="rect10657" width="24" height="24" x=".088" y="1029.4" fill-opacity="0"/><path id="path10769" fill="#2e3436" d="m-555.82 22.937-11.801 3.1974v9.6581l11.801 3.4441 10.23-3.1316v-9.9706z" filter="url(#filter10824)" transform="matrix(1.0124 0 0 1 575.75 1011.2)"/><path id="path10705" fill="url(#linearGradient4333)" stroke="url(#linearGradient4335)" stroke-linejoin="round" d="m23.514 1034.8-10.55-3.9367-1.4805 0.054 0.007 19.914 1.509 0.017 10.514-3.1427z"/><path id="path10691" fill="url(#linearGradient4337)" stroke="url(#linearGradient4339)" stroke-linejoin="round" d="m0.55806 1034.8 10.471-3.9459h1.4422l0.0365 19.989-1.4631-0.031-10.487-3.1115z"/><path id="path10693" fill="#fff" d="m2 1036.4 9.0165-3.0054-0.0442 15.034l-8.972-2z"/><path id="rect10668" fill="#539710" d="m5 1037 2-0.3728v8.6465l-1.9844-0.3518z"/><path id="rect10672" fill="#539710" d="m3 1040.1 6.5938-0.9381v3.3314l-6.5938-0.9z"/><path id="path10737" fill="#fff" d="m22.016 1036.4-9.016-3l0.0442 15.034 8.9723-2.0281z"/><rect id="rect10798" width="2" height="2" x="11" y="1030.4" fill="#85680e" rx="0" ry="0"/><rect id="rect10800" width="2" height="2" x="11" y="1049.4" fill="#85680e" rx="0" ry="0"/><rect id="rect10767" width="2" height="19" x="11" y="1031.4" fill="#eabe35" rx="0" ry="0"/><rect id="rect10842" width="2" height="1" x="11" y="1031.4" fill="#a78312" rx="0" ry="0"/><path id="path10810" fill="none" stroke="url(#linearGradient4341)" stroke-width="1" d="m12.816 1031.9-1.6843 0.01-9.6106 3.6209-0.0183 11.457 9.5022 2.8463 1.9639 0.031 9.5057-2.8861 0.0335-11.455z" opacity=".75"/><path id="path10830" fill="#dc0000" d="m21.062 1040.1-6.5938-0.9381v3.3314l6.5938-0.8463z"/><g id="layer9" fill="#fff" stroke="#000" stroke-linecap="round" stroke-linejoin="round" display="none" transform="translate(-1687.8 -118.06)"><path id="path11071" stroke-width=".852" d="m729.88 60.625a14.688 5.9375 0 1 1 -29.375 0 14.688 5.9375 0 1 1 29.375 0z" display="inline" enable-background="new" opacity=".5" transform="matrix(1.2596 0 0 1.0947 -22.831 -6.3684)"/><path id="path11073" stroke-width=".852" d="m729.88 60.625a14.688 5.9375 0 1 1 -29.375 0 14.688 5.9375 0 1 1 29.375 0z" display="inline" enable-background="new" opacity=".5" transform="matrix(1.2596 0 0 1.0947 -22.831 -3.3684)"/><path id="path11075" stroke-width="1.021" d="m729.88 60.625a14.688 5.9375 0 1 1 -29.375 0 14.688 5.9375 0 1 1 29.375 0z" display="inline" enable-background="new" opacity=".5" transform="matrix(1.0553 0 0 .90859 173.25 35.022)"/><path id="path11084" stroke-width=".984" d="m729.88 60.625a14.688 5.9375 0 1 1 -29.375 0 14.688 5.9375 0 1 1 29.375 0z" display="inline" enable-background="new" opacity=".5" transform="matrix(1.0553 0 0 .97833 123.25 30.38)"/><path id="path11086" stroke-width=".969" d="m729.88 60.625a14.688 5.9375 0 1 1 -29.375 0 14.688 5.9375 0 1 1 29.375 0z" display="inline" enable-background="new" opacity=".5" transform="matrix(1.0894 0 0 .97833 98.901 27.38)"/></g></g></svg>